<svg xmlns="http://www.w3.org/2000/svg" width="10" height="11" viewBox="0 0 10 11"><defs><mask id="fxkbb" width="2" height="2" x="-1" y="-1"><path fill="#fff" d="M0 0h10v10H0z"/><path d="M1.408 6.413L-.005 5 5-.005 10.005 5 8.592 6.413 6 3.822V10H4V3.822z"/></mask><filter id="fxkba" width="30" height="31" x="-10" y="-10" filterUnits="userSpaceOnUse"><feOffset dy="1" in="SourceGraphic" result="FeOffset1023Out"/><feGaussianBlur in="FeOffset1023Out" result="FeGaussianBlur1024Out" stdDeviation="0 0"/></filter></defs><g><g opacity=".64"><g filter="url(#fxkba)"><path fill="none" d="M1.408 6.413L-.005 5 5-.005 10.005 5 8.592 6.413 6 3.822V10H4V3.822z" mask="url(&quot;#fxkbb&quot;)"/><path fill-opacity=".16" d="M1.408 6.413L-.005 5 5-.005 10.005 5 8.592 6.413 6 3.822V10H4V3.822z"/></g><path fill="#fff" d="M1.408 6.413L-.005 5 5-.005 10.005 5 8.592 6.413 6 3.822V10H4V3.822z"/></g></g></svg>